<svg xmlns="http://www.w3.org/2000/svg" xmlns:xlink="http://www.w3.org/1999/xlink" viewBox="0 0 621.49 621.14"><defs><style>.cls-1{fill:url(#Dusk);}.cls-2{fill:url(#Dusk-2);}.cls-3{fill:url(#Dusk-3);}</style><linearGradient id="Dusk" x1="73.98" y1="604.04" x2="295.79" y2="-5.38" gradientUnits="userSpaceOnUse"><stop offset="0" stop-color="#ff5f0f"/><stop offset="0.4" stop-color="#8b2e0a"/><stop offset="1" stop-color="#2a1510"/></linearGradient><linearGradient id="Dusk-2" x1="328.16" y1="621.64" x2="544.9" y2="26.13" xlink:href="#Dusk"/><linearGradient id="Dusk-3" x1="207.33" y1="586.48" x2="410.17" y2="29.18" xlink:href="#Dusk"/></defs><g id="Layer_2" data-name="Layer 2"><g id="Layer_1-2" data-name="Layer 1"><path class="cls-1" d="M252.93,547.16V74c0-40.7,25.94-74,57.63-74H160.09Q84.68,0,47,38.82T9.25,164.42q0,52.07,12.1,82.67t41.26,54.35A107.15,107.15,0,0,0,15.3,351.68Q0,384.56,0,443,0,533.46,41.26,577.3t116,43.84H310.56C278.87,621.14,252.93,587.85,252.93,547.16Zm-1.06-63.68c0,16.43-10.47,29.88-23.27,29.88H162.23q-32,0-47.33-16.45T99.61,436.63q0-74.89,62.62-74.91H228.6c12.8,0,23.27,13.45,23.27,29.88Zm0-257.59c0,16.43-10.47,29.87-23.27,29.87H164.35q-55.48,0-55.49-74t56.21-74H228.6c12.8,0,23.27,13.44,23.27,29.88Z"/><path class="cls-2" d="M613,164q-8.55-52.53-31-91.35T519,16.9Q478.48,0,415.86,0H326.79c12.8,0,23.27,13.44,23.27,29.88V591.27c0,16.43-10.47,29.87-23.27,29.87h89.07q64,0,105.3-19.63t63-63q21.69-43.38,29.52-98.66t7.83-139.3Q621.49,216.49,613,164ZM519,374.51q-5,74-25.63,102.31-24.18,34.73-77.55,34.71h-7.11c-31.7,0-57.63-33.29-57.63-74V183.6c0-40.69,25.93-74,57.63-74h7.11q35.58,0,56.57,9.59t31.66,35.17Q514.76,180,517.61,211t2.84,82.67Q520.45,345.29,519,374.51Z"/><path class="cls-3" d="M350.06,591.27V29.88C350.06,13.44,339.59,0,326.79,0H310.56c-31.69,0-57.63,33.29-57.63,74V547.16c0,40.69,25.94,74,57.63,74h16.23C339.59,621.14,350.06,607.7,350.06,591.27Z"/></g></g></svg>